<svg xmlns="http://www.w3.org/2000/svg" xmlns:xlink="http://www.w3.org/1999/xlink" width="24px" height="24px" viewBox="0 0 24 24" version="1.1">
  <g id="surface1">
  <path style=" stroke:none;fill-rule:nonzero;fill:rgb(0%,0%,0%);fill-opacity:1;" d="M 21.035156 0.75 L 2.964844 0.75 C 1.742188 0.75 0.75 1.742188 0.75 2.964844 L 0.75 21.035156 C 0.75 22.257812 1.742188 23.25 2.964844 23.25 L 21.035156 23.25 C 22.257812 23.25 23.25 22.257812 23.25 21.035156 L 23.25 2.964844 C 23.25 1.742188 22.257812 0.75 21.035156 0.75 Z M 21.75 21.035156 C 21.75 21.429688 21.429688 21.75 21.035156 21.75 L 2.964844 21.75 C 2.570312 21.75 2.25 21.429688 2.25 21.035156 L 2.25 2.964844 C 2.25 2.570312 2.570312 2.25 2.964844 2.25 L 21.035156 2.25 C 21.429688 2.25 21.75 2.570312 21.75 2.964844 Z M 21.75 21.035156 "/>
  <path style=" stroke:none;fill-rule:nonzero;fill:rgb(0%,0%,0%);fill-opacity:1;" d="M 16.246094 10.542969 L 13.199219 9.6875 L 14.808594 3.953125 C 14.90625 3.605469 14.742188 3.234375 14.417969 3.078125 C 14.089844 2.917969 13.699219 3.015625 13.484375 3.304688 L 7.351562 11.640625 C 7.207031 11.839844 7.167969 12.097656 7.246094 12.332031 C 7.328125 12.5625 7.515625 12.742188 7.753906 12.808594 L 10.800781 13.664062 L 9.007812 20.046875 C 8.910156 20.398438 9.078125 20.769531 9.40625 20.929688 C 9.734375 21.082031 10.132812 20.984375 10.34375 20.683594 L 16.65625 11.699219 C 16.796875 11.5 16.828125 11.242188 16.75 11.015625 C 16.667969 10.785156 16.480469 10.609375 16.246094 10.542969 Z M 11.636719 16.230469 L 12.449219 13.347656 C 12.5 13.15625 12.476562 12.949219 12.378906 12.777344 C 12.28125 12.605469 12.121094 12.476562 11.929688 12.421875 L 9.203125 11.65625 L 12.253906 7.511719 L 11.550781 10.003906 C 11.5 10.195312 11.523438 10.402344 11.621094 10.574219 C 11.71875 10.746094 11.878906 10.875 12.070312 10.929688 L 14.820312 11.699219 Z M 11.636719 16.230469 "/>
  </g>
</svg>
