<?xml version="1.0" encoding="UTF-8"?>
<svg xmlns="http://www.w3.org/2000/svg" xmlns:xlink="http://www.w3.org/1999/xlink" width="40px" height="40px" viewBox="0 0 40 40" version="1.1">
<g id="surface1">
<path style=" stroke:none;fill-rule:nonzero;fill:rgb(0%,0%,0%);fill-opacity:1;" d="M 6.417969 29.179688 C 7.453125 29.179688 8.292969 28.339844 8.292969 27.304688 C 8.292969 26.269531 7.453125 25.429688 6.417969 25.429688 C 5.378906 25.429688 4.542969 26.269531 4.542969 27.304688 C 4.542969 28.339844 5.382812 29.179688 6.417969 29.179688 Z M 6.417969 26.679688 C 6.761719 26.679688 7.042969 26.957031 7.042969 27.304688 C 7.042969 27.648438 6.761719 27.929688 6.417969 27.929688 C 6.070312 27.929688 5.792969 27.648438 5.792969 27.304688 C 5.792969 26.957031 6.070312 26.679688 6.417969 26.679688 Z M 6.417969 26.679688 "/>
<path style=" stroke:none;fill-rule:nonzero;fill:rgb(0%,0%,0%);fill-opacity:1;" d="M 12.058594 23.632812 C 11.023438 23.632812 10.183594 24.472656 10.183594 25.507812 C 10.183594 26.542969 11.023438 27.382812 12.058594 27.382812 C 13.09375 27.382812 13.933594 26.542969 13.933594 25.507812 C 13.933594 24.472656 13.09375 23.632812 12.058594 23.632812 Z M 12.058594 26.132812 C 11.714844 26.132812 11.433594 25.851562 11.433594 25.507812 C 11.433594 25.164062 11.714844 24.882812 12.058594 24.882812 C 12.40625 24.882812 12.683594 25.164062 12.683594 25.507812 C 12.683594 25.851562 12.40625 26.132812 12.058594 26.132812 Z M 12.058594 26.132812 "/>
<path style=" stroke:none;fill-rule:nonzero;fill:rgb(0%,0%,0%);fill-opacity:1;" d="M 20.617188 30.226562 C 20.617188 29.191406 19.777344 28.351562 18.742188 28.351562 C 17.703125 28.351562 16.867188 29.191406 16.867188 30.226562 C 16.867188 31.261719 17.703125 32.101562 18.742188 32.101562 C 19.777344 32.101562 20.613281 31.261719 20.617188 30.226562 Z M 18.117188 30.226562 C 18.117188 29.882812 18.394531 29.601562 18.742188 29.601562 C 19.085938 29.601562 19.367188 29.882812 19.367188 30.226562 C 19.367188 30.570312 19.085938 30.851562 18.742188 30.851562 C 18.394531 30.851562 18.117188 30.570312 18.117188 30.226562 Z M 18.117188 30.226562 "/>
<path style=" stroke:none;fill-rule:nonzero;fill:rgb(0%,0%,0%);fill-opacity:1;" d="M 31.5 21.082031 C 30.464844 21.082031 29.625 21.921875 29.625 22.957031 C 29.625 23.992188 30.464844 24.832031 31.5 24.832031 C 32.535156 24.832031 33.375 23.992188 33.375 22.957031 C 33.375 21.921875 32.535156 21.085938 31.5 21.082031 Z M 31.5 23.582031 C 31.15625 23.582031 30.875 23.304688 30.875 22.957031 C 30.875 22.613281 31.15625 22.332031 31.5 22.332031 C 31.84375 22.332031 32.125 22.613281 32.125 22.957031 C 32.125 23.304688 31.84375 23.582031 31.5 23.582031 Z M 31.5 23.582031 "/>
<path style=" stroke:none;fill-rule:nonzero;fill:rgb(0%,0%,0%);fill-opacity:1;" d="M 19.097656 13.75 C 18.0625 13.75 17.222656 14.589844 17.222656 15.625 C 17.222656 16.660156 18.0625 17.5 19.097656 17.5 C 20.132812 17.5 20.972656 16.660156 20.972656 15.625 C 20.972656 14.589844 20.132812 13.75 19.097656 13.75 Z M 19.097656 16.25 C 18.753906 16.25 18.472656 15.96875 18.472656 15.625 C 18.472656 15.28125 18.753906 15 19.097656 15 C 19.441406 15 19.722656 15.28125 19.722656 15.625 C 19.722656 15.96875 19.441406 16.25 19.097656 16.25 Z M 19.097656 16.25 "/>
<path style=" stroke:none;fill-rule:nonzero;fill:rgb(0%,0%,0%);fill-opacity:1;" d="M 12.605469 17.5 C 12.605469 16.464844 11.765625 15.625 10.730469 15.625 C 9.695312 15.625 8.855469 16.464844 8.855469 17.5 C 8.855469 18.535156 9.695312 19.375 10.730469 19.375 C 11.765625 19.375 12.601562 18.535156 12.605469 17.5 Z M 10.105469 17.5 C 10.105469 17.15625 10.382812 16.875 10.730469 16.875 C 11.074219 16.875 11.355469 17.15625 11.355469 17.5 C 11.355469 17.84375 11.074219 18.125 10.730469 18.125 C 10.382812 18.125 10.105469 17.84375 10.105469 17.5 Z M 10.105469 17.5 "/>
<path style=" stroke:none;fill-rule:nonzero;fill:rgb(0%,0%,0%);fill-opacity:1;" d="M 26.714844 13.75 C 25.335938 13.75 24.214844 14.871094 24.214844 16.25 C 24.214844 17.628906 25.335938 18.75 26.714844 18.75 C 28.097656 18.75 29.214844 17.628906 29.214844 16.25 C 29.214844 14.871094 28.09375 13.75 26.714844 13.75 Z M 26.714844 17.5 C 26.023438 17.5 25.464844 16.941406 25.464844 16.25 C 25.464844 15.558594 26.023438 15 26.714844 15 C 27.40625 15 27.964844 15.558594 27.964844 16.25 C 27.964844 16.941406 27.40625 17.5 26.714844 17.5 Z M 26.714844 17.5 "/>
<path style=" stroke:none;fill-rule:nonzero;fill:rgb(0%,0%,0%);fill-opacity:1;" d="M 7.945312 21.550781 C 7.945312 20.34375 6.964844 19.363281 5.757812 19.363281 C 4.550781 19.363281 3.570312 20.34375 3.570312 21.550781 C 3.570312 22.761719 4.550781 23.738281 5.757812 23.738281 C 6.964844 23.738281 7.945312 22.761719 7.945312 21.550781 Z M 4.820312 21.550781 C 4.820312 21.035156 5.238281 20.613281 5.757812 20.613281 C 6.277344 20.613281 6.695312 21.035156 6.695312 21.550781 C 6.695312 22.070312 6.277344 22.488281 5.757812 22.488281 C 5.242188 22.488281 4.820312 22.070312 4.820312 21.550781 Z M 4.820312 21.550781 "/>
<path style=" stroke:none;fill-rule:nonzero;fill:rgb(0%,0%,0%);fill-opacity:1;" d="M 9.871094 32.175781 C 9.871094 33.382812 10.851562 34.363281 12.058594 34.363281 C 13.269531 34.363281 14.246094 33.382812 14.246094 32.175781 C 14.246094 30.96875 13.269531 29.988281 12.058594 29.988281 C 10.851562 29.988281 9.875 30.96875 9.871094 32.175781 Z M 12.996094 32.175781 C 12.996094 32.695312 12.578125 33.113281 12.058594 33.113281 C 11.542969 33.113281 11.121094 32.695312 11.121094 32.175781 C 11.121094 31.660156 11.542969 31.238281 12.058594 31.238281 C 12.578125 31.238281 12.996094 31.660156 12.996094 32.175781 Z M 12.996094 32.175781 "/>
<path style=" stroke:none;fill-rule:nonzero;fill:rgb(0%,0%,0%);fill-opacity:1;" d="M 22.980469 19.519531 C 21.773438 19.519531 20.792969 20.5 20.792969 21.707031 C 20.792969 22.917969 21.773438 23.894531 22.980469 23.894531 C 24.191406 23.894531 25.167969 22.917969 25.167969 21.707031 C 25.167969 20.5 24.191406 19.523438 22.980469 19.519531 Z M 22.980469 22.644531 C 22.464844 22.644531 22.042969 22.226562 22.042969 21.707031 C 22.042969 21.191406 22.464844 20.769531 22.980469 20.769531 C 23.5 20.769531 23.917969 21.191406 23.917969 21.707031 C 23.917969 22.226562 23.5 22.644531 22.980469 22.644531 Z M 22.980469 22.644531 "/>
<path style=" stroke:none;fill-rule:nonzero;fill:rgb(0%,0%,0%);fill-opacity:1;" d="M 33.316406 13.652344 C 32.109375 13.652344 31.128906 14.628906 31.128906 15.839844 C 31.128906 17.046875 32.109375 18.027344 33.316406 18.027344 C 34.527344 18.027344 35.503906 17.046875 35.503906 15.839844 C 35.503906 14.632812 34.523438 13.652344 33.316406 13.652344 Z M 33.316406 16.777344 C 32.800781 16.777344 32.378906 16.355469 32.378906 15.839844 C 32.378906 15.320312 32.800781 14.902344 33.316406 14.902344 C 33.835938 14.902344 34.253906 15.320312 34.253906 15.839844 C 34.253906 16.355469 33.835938 16.777344 33.316406 16.777344 Z M 33.316406 16.777344 "/>
<path style=" stroke:none;fill-rule:nonzero;fill:rgb(0%,0%,0%);fill-opacity:1;" d="M 24.542969 9.628906 C 25.753906 9.628906 26.730469 8.648438 26.730469 7.441406 C 26.730469 6.230469 25.753906 5.253906 24.542969 5.253906 C 23.335938 5.253906 22.355469 6.230469 22.355469 7.441406 C 22.359375 8.648438 23.335938 9.625 24.542969 9.628906 Z M 24.542969 6.503906 C 25.0625 6.503906 25.480469 6.921875 25.480469 7.441406 C 25.480469 7.957031 25.0625 8.378906 24.542969 8.378906 C 24.027344 8.378906 23.605469 7.957031 23.605469 7.441406 C 23.609375 6.921875 24.027344 6.503906 24.542969 6.503906 Z M 24.542969 6.503906 "/>
<path style=" stroke:none;fill-rule:nonzero;fill:rgb(0%,0%,0%);fill-opacity:1;" d="M 23.769531 30.332031 C 23.488281 30.136719 23.097656 30.207031 22.902344 30.492188 C 20.683594 33.703125 17.027344 35.625 13.125 35.625 C 6.578125 35.625 1.25 30.296875 1.25 23.75 C 1.25 17.335938 6.339844 12.082031 12.75 11.882812 C 13.09375 11.867188 13.363281 11.582031 13.351562 11.238281 C 13.339844 10.894531 13.054688 10.621094 12.710938 10.632812 C 5.628906 10.855469 0 16.664062 0 23.75 C 0 30.988281 5.886719 36.875 13.125 36.875 C 17.441406 36.875 21.476562 34.753906 23.929688 31.203125 C 24.125 30.917969 24.054688 30.527344 23.769531 30.332031 Z M 23.769531 30.332031 "/>
<path style=" stroke:none;fill-rule:nonzero;fill:rgb(0%,0%,0%);fill-opacity:1;" d="M 39.828125 14.121094 C 39.796875 13.929688 39.675781 13.761719 39.5 13.667969 C 39.328125 13.578125 39.121094 13.574219 38.945312 13.65625 C 38.695312 13.777344 38.421875 13.835938 38.144531 13.835938 C 37.464844 13.835938 36.839844 13.46875 36.507812 12.878906 C 36.175781 12.289062 36.191406 11.5625 36.542969 10.984375 C 36.667969 10.785156 36.667969 10.53125 36.542969 10.332031 C 36.421875 10.132812 36.195312 10.015625 35.964844 10.035156 C 35.917969 10.039062 35.878906 10.039062 35.84375 10.039062 C 35.351562 10.042969 34.886719 9.808594 34.589844 9.414062 C 34.421875 9.191406 34.125 9.105469 33.867188 9.207031 C 33.097656 9.503906 32.230469 9.402344 31.550781 8.9375 C 30.867188 8.472656 30.460938 7.699219 30.460938 6.875 C 30.460938 6.71875 30.476562 6.558594 30.507812 6.40625 C 30.539062 6.222656 30.492188 6.035156 30.375 5.894531 C 30.257812 5.75 30.085938 5.667969 29.898438 5.664062 C 29.046875 5.652344 28.359375 4.957031 28.355469 4.101562 C 28.355469 4.023438 28.363281 3.949219 28.375 3.871094 C 28.398438 3.699219 28.351562 3.523438 28.242188 3.390625 C 28.132812 3.253906 27.972656 3.167969 27.796875 3.15625 C 27.484375 3.136719 27.175781 3.125 26.875 3.125 C 19.636719 3.125 13.75 9.011719 13.75 16.25 C 13.75 23.488281 19.636719 29.375 26.875 29.375 C 34.113281 29.375 40 23.488281 40 16.25 C 40 15.539062 39.941406 14.824219 39.828125 14.121094 Z M 26.875 28.125 C 20.328125 28.125 15 22.796875 15 16.25 C 15 9.703125 20.328125 4.375 26.875 4.375 C 26.957031 4.375 27.039062 4.375 27.121094 4.378906 C 27.242188 5.550781 28.074219 6.523438 29.210938 6.824219 C 29.210938 6.839844 29.210938 6.859375 29.210938 6.875 C 29.210938 8.035156 29.75 9.128906 30.664062 9.839844 C 31.582031 10.546875 32.773438 10.796875 33.898438 10.507812 C 34.238281 10.832031 34.660156 11.070312 35.117188 11.191406 C 34.855469 12.222656 35.136719 13.308594 35.855469 14.085938 C 36.578125 14.863281 37.644531 15.222656 38.6875 15.039062 C 38.730469 15.441406 38.75 15.84375 38.75 16.25 C 38.75 22.796875 33.421875 28.125 26.875 28.125 Z M 26.875 28.125 "/>
</g>
</svg>
