<svg width="24" height="24" viewBox="0 0 24 24" fill="none" xmlns="http://www.w3.org/2000/svg">
<path d="M23.8765 10.6081L21.4059 5.65003C21.3377 5.51297 21.2433 5.39074 21.1281 5.29032C21.0129 5.18991 20.8792 5.11327 20.7345 5.0648C20.5898 5.01632 20.437 4.99694 20.2849 5.00778C20.1328 5.01862 19.9842 5.05946 19.8478 5.12797L17.3104 6.39763L12.0963 5.01325C12.0329 4.99635 11.9662 4.99635 11.9027 5.01325L6.68861 6.39763L4.15121 5.12311C4.01479 5.0546 3.86627 5.01376 3.71413 5.00292C3.562 4.99208 3.40923 5.01146 3.26455 5.05994C3.11987 5.10841 2.98611 5.18505 2.87091 5.28546C2.75571 5.38588 2.66134 5.50811 2.59316 5.64517L0.122545 10.6081C0.0543516 10.7452 0.0136993 10.8944 0.00290963 11.0472C-0.00788001 11.2 0.0114044 11.3535 0.0596615 11.4989C0.107919 11.6442 0.184203 11.7786 0.284159 11.8943C0.384114 12.01 0.505783 12.1048 0.642217 12.1733L3.28316 13.5004L8.67826 17.3716C8.71756 17.3999 8.76192 17.4203 8.8089 17.4318L15.0024 18.9873C15.0668 19.0043 15.1345 19.0042 15.199 18.9872C15.2634 18.9702 15.3223 18.9367 15.3701 18.8901L20.7449 13.4906L23.3578 12.1782C23.4942 12.1097 23.6159 12.0149 23.7158 11.8992C23.8158 11.7834 23.8921 11.6491 23.9403 11.5037C23.9886 11.3584 24.0079 11.2049 23.9971 11.0521C23.9863 10.8992 23.9457 10.75 23.8775 10.613L23.8765 10.6081ZM18.9411 14.2003L15.3411 11.3032C15.2666 11.2432 15.1725 11.2129 15.0771 11.2183C14.9817 11.2237 14.8917 11.2643 14.8243 11.3324C12.9382 13.2418 10.8237 12.9958 9.47374 12.1296C9.42405 12.0976 9.38216 12.0547 9.35117 12.0042C9.32018 11.9538 9.30088 11.8969 9.29471 11.8379C9.2881 11.7811 9.29433 11.7236 9.31292 11.6696C9.33152 11.6155 9.36201 11.5664 9.40213 11.5259L13.7047 7.33286H17.1798L20.0443 13.0891L18.9411 14.2003ZM0.794151 11.2527C0.763204 11.1564 0.770841 11.0518 0.815441 10.961L3.28993 5.99321C3.32168 5.92901 3.37048 5.87487 3.43094 5.83678C3.49139 5.7987 3.56115 5.77814 3.63251 5.77738C3.69237 5.77775 3.75134 5.79206 3.80476 5.81919L6.12732 6.9858L3.31025 12.6448L0.987697 11.4782C0.942268 11.4552 0.901792 11.4235 0.868582 11.3848C0.835372 11.3461 0.81008 11.3012 0.794151 11.2527ZM14.9772 18.1794L9.06826 16.6949L3.97799 13.0425L6.91409 7.13843L11.9995 5.79099L14.8756 6.55512H13.5479C13.4471 6.55503 13.3502 6.59444 13.2779 6.66498L8.85536 10.9746C8.73228 11.0983 8.63844 11.2481 8.58079 11.4131C8.52313 11.5781 8.50314 11.754 8.52228 11.9278C8.54142 12.1016 8.59921 12.2689 8.69137 12.4172C8.78353 12.5656 8.9077 12.6912 9.05471 12.7848C10.9786 14.0205 13.3253 13.757 15.1185 12.1228L18.3865 14.7535L14.9772 18.1794ZM23.2029 11.2527C23.187 11.3012 23.1617 11.3461 23.1285 11.3848C23.0953 11.4235 23.0548 11.4552 23.0094 11.4782L20.6868 12.6448L17.8717 6.9858L20.1943 5.81919C20.2856 5.77449 20.3908 5.76769 20.4872 5.80025C20.5835 5.83281 20.6632 5.90211 20.7091 5.99321L23.1797 10.9562C23.2269 11.0477 23.236 11.1544 23.2049 11.2527H23.2029Z" fill="white"/>
</svg>
